<svg width="72" height="73" viewBox="0 0 72 73" fill="none" xmlns="http://www.w3.org/2000/svg">
<path d="M27.1602 45.1455C27.0027 43.8771 27.1152 42.5791 27.5062 41.3613C28.056 39.6513 29.0277 38.013 29.7308 36.3537C30.4874 34.5691 31.2004 32.7663 31.8894 30.9537C33.0594 27.8768 34.1619 24.776 35.2855 21.6822L23.7515 21.6499V51.3499H31.0654C28.9701 49.9746 27.4794 47.7246 27.1588 45.1455H27.1602Z" fill="url(#paint0_linear_695_2728)"/>
<path d="M38.5607 21.6907L36.3909 21.6851C36.5779 22.1969 36.7663 22.7088 36.9534 23.2207C38.0052 26.088 38.9924 28.9793 40.0499 31.8438C40.8599 34.039 41.819 36.1427 42.7387 38.2774C42.9876 38.854 43.2323 39.4333 43.4713 40.0169C44.0043 41.3205 44.5795 42.5974 44.5795 44.0276C44.5795 46.9793 43.1085 49.5752 40.867 51.1572C44.0324 50.6665 46.8745 49.1801 49.0415 46.9793C49.3382 46.6812 49.6349 46.3844 49.8895 46.0877C52.0973 43.4988 53.4107 40.1463 53.4107 36.4985C53.4107 28.3085 46.7493 21.6893 38.5607 21.6893V21.6907Z" fill="url(#paint1_linear_695_2728)"/>
<path d="M24.8919 45.1458C24.7344 43.8773 24.8469 42.5794 25.2379 41.3615C25.7877 39.6515 26.7594 38.0133 27.4626 36.3539C28.2191 34.5694 28.9321 32.7665 29.6212 30.9539C30.7912 27.877 31.8937 24.7762 33.0172 21.6825L23.7515 21.6558V51.3501H28.7971C26.7018 49.9748 25.2112 47.7248 24.8905 45.1458H24.8919Z" fill="url(#paint2_linear_695_2728)"/>
<path d="M39.7505 21.7509C39.9305 22.2417 40.1091 22.7311 40.2891 23.2205C41.341 26.0878 42.3281 28.979 43.3856 31.8436C44.1956 34.0387 45.1547 36.1425 46.0744 38.2772C46.3233 38.8537 46.568 39.4331 46.8071 40.0167C47.34 41.3203 47.9152 42.5972 47.9152 44.0273C47.9152 45.9876 47.2556 47.7848 46.163 49.2389C47.2135 48.6075 48.1838 47.8523 49.043 46.979C49.3397 46.6809 49.6364 46.3842 49.891 46.0875C52.0988 43.4986 53.4122 40.1461 53.4122 36.4983C53.4122 28.7105 47.385 22.3556 39.7505 21.7495V21.7509Z" fill="url(#paint3_linear_695_2728)"/>
<path d="M36 67.4375C18.9408 67.4375 5.0625 53.5592 5.0625 36.5C5.0625 19.4408 18.9408 5.5625 36 5.5625C53.0592 5.5625 66.9375 19.4408 66.9375 36.5C66.9375 53.5592 53.0592 67.4375 36 67.4375ZM36 9.35234C21.0305 9.35234 8.85234 21.5305 8.85234 36.5C8.85234 51.4695 21.0305 63.6477 36 63.6477C50.9695 63.6477 63.1477 51.4695 63.1477 36.5C63.1477 21.5305 50.9695 9.35234 36 9.35234Z" fill="url(#paint4_linear_695_2728)"/>
<path d="M63.145 36.604C63.0887 51.5257 50.9345 63.6476 36.0001 63.6476C21.0657 63.6476 8.91152 51.5257 8.85527 36.604H5.06543C5.12168 53.6154 18.9761 67.4374 36.0001 67.4374C53.0242 67.4374 66.8786 53.6154 66.9348 36.604H63.145Z" fill="url(#paint5_linear_695_2728)"/>
<path d="M8.85527 36.3959C8.91152 21.4742 21.0657 9.35234 36.0001 9.35234C50.9345 9.35234 63.0887 21.4742 63.145 36.3959H66.9348C66.8786 19.3845 53.0242 5.5625 36.0001 5.5625C18.9761 5.5625 5.12168 19.3845 5.06543 36.3959H8.85527Z" fill="url(#paint6_linear_695_2728)"/>
<defs>
<linearGradient id="paint0_linear_695_2728" x1="29.5199" y1="57.8707" x2="29.5199" y2="37.5082" gradientUnits="userSpaceOnUse">
<stop stop-color="#B89B5A"/>
<stop offset="1" stop-color="#F9E0A8"/>
</linearGradient>
<linearGradient id="paint1_linear_695_2728" x1="44.9015" y1="57.8707" x2="44.9015" y2="37.5082" gradientUnits="userSpaceOnUse">
<stop stop-color="#B89B5A"/>
<stop offset="1" stop-color="#F9E0A8"/>
</linearGradient>
<linearGradient id="paint2_linear_695_2728" x1="28.3851" y1="50.8495" x2="28.3851" y2="23.5162" gradientUnits="userSpaceOnUse">
<stop stop-color="#B89B5A"/>
<stop offset="1" stop-color="#F9E0A8"/>
</linearGradient>
<linearGradient id="paint3_linear_695_2728" x1="46.5806" y1="48.398" x2="46.5806" y2="27.3506" gradientUnits="userSpaceOnUse">
<stop stop-color="#B89B5A"/>
<stop offset="1" stop-color="#F9E0A8"/>
</linearGradient>
<linearGradient id="paint4_linear_695_2728" x1="5.88094" y1="36.5" x2="277.246" y2="36.5" gradientUnits="userSpaceOnUse">
<stop stop-color="#B89B5A"/>
<stop offset="1" stop-color="#F9E0A8"/>
</linearGradient>
<linearGradient id="paint5_linear_695_2728" x1="5.06543" y1="52.0207" x2="66.9348" y2="52.0207" gradientUnits="userSpaceOnUse">
<stop stop-color="#B89B5A"/>
<stop offset="1" stop-color="#F9E0A8" stop-opacity="0.5"/>
</linearGradient>
<linearGradient id="paint6_linear_695_2728" x1="66.9348" y1="20.9792" x2="5.06543" y2="20.9792" gradientUnits="userSpaceOnUse">
<stop stop-color="#B89B5A"/>
<stop offset="1" stop-color="#F9E0A8" stop-opacity="0.5"/>
</linearGradient>
</defs>
</svg>
